{
  "accessors": [
    {
      "bufferView": 0,
      "byteOffset": 0,
      "componentType": 5126,
      "normalized": false,
      "count": 186,
      "type": "VEC3",
      "max": [
        5.839998722076416,
        5.839998722076416,
        5.839998722076416
      ],
      "min": [
        -5.839998722076416,
        -5.839998722076416,
        -5.839998722076416
      ],
      "name": "part0_vertices"
    },
    {
      "bufferView": 1,
      "byteOffset": 0,
      "componentType": 5126,
      "normalized": false,
      "count": 186,
      "type": "VEC3",
      "max": [
        1.0,
        1.0,
        1.0
      ],
      "min": [
        -1.0,
        -1.0,
        -1.0
      ],
      "name": "part0_normals"
    },
    {
      "bufferView": 2,
      "byteOffset": 0,
      "componentType": 5126,
      "normalized": false,
      "count": 186,
      "type": "VEC2",
      "max": [
        0.057373046875,
        0.05975341796875
      ],
      "min": [
        0.002685546875,
        0.00506591796875
      ],
      "name": "part0_uvs"
    },
    {
      "bufferView": 3,
      "byteOffset": 0,
      "componentType": 5123,
      "normalized": false,
      "count": 528,
      "type": "SCALAR",
      "max": [
        185
      ],
      "min": [
        0
      ],
      "name": "part0_indices"
    }
  ],
  "asset": {
    "generator": "klonoa2-tools (https://github.com/evilarceus/klonoa2-tools)",
    "copyright": "Models by Namco, extracted by t4ils",
    "version": "2.0"
  },
  "bufferViews": [
    {
      "buffer": 0,
      "byteOffset": 0,
      "byteLength": 2232,
      "byteStride": 12,
      "target": 34962,
      "name": "vertices"
    },
    {
      "buffer": 0,
      "byteOffset": 2232,
      "byteLength": 2232,
      "byteStride": 12,
      "target": 34962,
      "name": "normals"
    },
    {
      "buffer": 0,
      "byteOffset": 4464,
      "byteLength": 1488,
      "byteStride": 8,
      "target": 34962,
      "name": "uvs"
    },
    {
      "buffer": 0,
      "byteOffset": 5952,
      "byteLength": 1056,
      "target": 34963,
      "name": "indices"
    }
  ],
  "buffers": [
    {
      "uri": "data:application/gltf-buffer;base64,",
      "byteLength": 7008
    }
  ],
  "images": [
    {
      "uri": "Yellow Spike Ball.png",
      "name": "Yellow Spike Ball.png"
    }
  ],
  "materials": [
    {
      "pbrMetallicRoughness": {
        "baseColorFactor": [
          1,
          1,
          1,
          1
        ],
        "metallicFactor": 0,
        "roughnessFactor": 1,
        "baseColorTexture": {
          "index": 0,
          "texCoord": 0
        }
      },
      "emissiveFactor": [
        0,
        0,
        0
      ],
      "alphaMode": "OPAQUE",
      "doubleSided": true,
      "name": "mtl0"
    }
  ],
  "meshes": [
    {
      "primitives": [
        {
          "attributes": {
            "POSITION": 0,
            "NORMAL": 1,
            "TEXCOORD_0": 2
          },
          "indices": 3,
          "mode": 4,
          "material": 0
        }
      ],
      "name": "part0"
    }
  ],
  "nodes": [
    {
      "mesh": 0,
      "name": "part0"
    }
  ],
  "samplers": [
    {
      "magFilter": 9728,
      "minFilter": 9728,
      "wrapS": 10497,
      "wrapT": 10497
    }
  ],
  "scene": 0,
  "scenes": [
    {
      "nodes": [
        0
      ]
    }
  ],
  "textures": [
    {
      "sampler": 0,
      "source": 0,
      "name": "Yellow Spike Ball.png"
    }
  ]
}