mtllib ItmWarpstar.mtl

v -8.450195 0.004000 8.450195
v 8.450195 0.004000 -8.450195
v -8.450195 0.004000 -8.450195
v 8.450195 0.004000 8.450195

vt 1.000000 0.500000
vt 0.000000 1.000000
vt 0.000000 0.500000
vt 1.000000 1.000000

vn -0.000000 1.000000 0.000000
vn -0.000000 1.000000 0.000000
vn -0.000000 1.000000 0.000000
vn -0.000000 1.000000 0.000000

g polygon0
s 1
usemtl mat2
f 1/1/1 2/2/2 3/3/3
f 1/1/1 4/4/4 2/2/2

v 1.269775 1.913424 0.000000
v 0.775391 4.957613 0.339600
v 0.802979 2.359713 1.711670
v 0.775391 4.957613 -0.339600
v 0.802979 2.359713 -1.711670
v 0.241699 5.913180 -0.522217
v 0.241699 3.008394 -2.182861
v -0.241699 5.913180 -0.522217
v -0.241699 3.008394 -2.182861
v -0.775391 4.957613 -0.339600
v -0.802979 2.359713 -1.711670
v -1.269775 1.913424 0.000000
v -1.270020 0.594088 -1.815918
v -1.426758 0.004000 0.000000
v -1.269775 -1.540678 -1.122314
v -1.269775 -1.540678 1.122314
v -0.802979 -2.907865 0.000000
v -0.775391 -4.203031 2.636963
v -0.241699 -5.083646 3.051025
v -0.241699 -5.127103 3.468750
v 0.241699 -5.127103 3.468750
v -0.241699 -4.880521 3.808105
v 0.241699 -4.880521 3.808105
v 0.241699 -4.469633 3.895752
v 0.775391 -3.803861 3.186279
v 0.802979 -0.895902 2.769531
v 1.269775 -1.540678 1.122314
v 1.270020 0.594088 1.815918
v 1.426758 0.004000 0.000000
v 1.269775 0.594088 -1.815918
v 0.775391 1.857760 -4.606201
v 0.241699 2.326510 -5.458740
v -0.241699 2.326510 -5.458740
v -0.775391 1.857760 -4.606201
v -0.775391 1.211764 -4.816162
v -0.802979 -0.895902 -2.769531
v -0.241699 -1.143705 -3.531982
v -0.241699 -4.469633 -3.895752
v 0.241699 -4.469633 -3.895752
v 0.241699 -4.880521 -3.808105
v 0.775391 -3.803861 -3.186279
v 0.241699 -5.127103 -3.468750
v 0.775391 -4.203031 -2.636963
v 0.241699 -5.083646 -3.051025
v 0.802979 -2.907865 0.000000
v 0.241699 -3.709623 0.000000
v 0.775391 -4.203031 2.636963
v 0.241699 -5.083646 3.051025
v 0.775391 1.857760 4.606201
v 0.241699 2.326510 5.458740
v 0.241699 2.116305 5.822266
v -0.241699 2.116305 5.822266
v 0.241699 1.717379 5.951904
v -0.241699 1.717379 5.951904
v -0.241699 1.333346 5.781250
v -0.775391 1.211764 4.816162
v -0.802979 -0.895902 2.769531
v -1.269775 0.594088 1.815918
v 1.269775 -1.540678 -1.122314
v 0.802979 -0.895902 -2.769531
v 0.775391 1.211764 -4.816162
v 0.241699 1.333346 -5.781250
v 0.241699 1.717379 -5.951904
v -0.241699 1.717379 -5.951904
v 0.241699 2.116305 -5.822266
v -0.241699 2.116305 -5.822266
v 0.241699 3.008394 2.182861
v 0.241699 5.913180 0.522217
v 0.241699 6.193942 0.209717
v -0.241699 5.913180 0.522217
v -0.241699 6.193942 0.209717
v -0.775391 4.957613 0.339600
v -0.241699 6.193942 -0.209717
v 0.775391 1.211764 4.816162
v 0.241699 -1.143705 3.531982
v -0.241699 -4.469633 3.895752
v -0.775391 -3.803861 3.186279
v -0.241699 -1.143705 3.531982
v 0.241699 1.333346 5.781250
v -0.802979 2.359713 1.711670
v -0.775391 1.857760 4.606201
v -0.241699 3.008394 2.182861
v -0.241699 2.326510 5.458740
v -0.775391 -3.803861 -3.186279
v -0.241699 -4.880521 -3.808105
v -0.241699 -5.127103 -3.468750
v 0.241699 6.193942 -0.209717
v -0.775391 -4.203031 -2.636963
v -0.241699 -3.709623 0.000000
v 0.241699 -1.143705 -3.531982
v -0.241699 1.333346 -5.781250
v -0.241699 -5.083646 -3.051025

vt 0.250000 0.648254
vt 0.264267 0.898407
vt 0.321899 0.684937
vt 0.235733 0.898407
vt 0.178101 0.684937
vt 0.228073 0.976929
vt 0.158310 0.738251
vt 0.228073 0.976929
vt 0.158310 0.738251
vt 0.235733 0.898407
vt 0.178101 0.684937
vt 0.250000 0.648254
vt 0.173721 0.539856
vt 0.250000 0.491394
vt 0.202866 0.364471
vt 0.297134 0.364471
vt 0.250000 0.252106
vt 0.360764 0.145691
vt 0.378143 0.073364
vt 0.395691 0.069763
vt 0.395691 0.069763
vt 0.409958 0.090027
vt 0.409958 0.090027
vt 0.413635 0.123779
vt 0.383835 0.178497
vt 0.366318 0.417450
vt 0.297134 0.364471
vt 0.326279 0.539856
vt 0.250000 0.491394
vt 0.173721 0.539856
vt 0.056519 0.643707
vt 0.020721 0.682220
vt 0.020721 0.682220
vt 0.056519 0.643707
vt 0.047714 0.590607
vt 0.133682 0.417450
vt 0.101654 0.397095
vt 0.086365 0.123779
vt 0.086365 0.123779
vt 0.090042 0.090027
vt 0.116165 0.178497
vt 0.104309 0.069763
vt 0.139236 0.145691
vt 0.121857 0.073364
vt 0.250000 0.252106
vt 0.250000 0.186249
vt 0.360764 0.145691
vt 0.378143 0.073364
vt 0.443481 0.643707
vt 0.479279 0.682220
vt 0.494553 0.664948
vt 0.494553 0.664948
vt 0.500000 0.632172
vt 0.500000 0.632172
vt 0.492828 0.600616
vt 0.452286 0.590607
vt 0.366318 0.417450
vt 0.326279 0.539856
vt 0.202866 0.364471
vt 0.133682 0.417450
vt 0.047714 0.590607
vt 0.007172 0.600616
vt 0.000000 0.632172
vt 0.000000 0.632172
vt 0.005447 0.664948
vt 0.005447 0.664948
vt 0.341690 0.738251
vt 0.271927 0.976929
vt 0.258804 1.000000
vt 0.271927 0.976929
vt 0.258804 1.000000
vt 0.264267 0.898407
vt 0.241196 1.000000
vt 0.452286 0.590607
vt 0.398346 0.397095
vt 0.413635 0.123779
vt 0.383835 0.178497
vt 0.398346 0.397095
vt 0.492828 0.600616
vt 0.321899 0.684937
vt 0.443481 0.643707
vt 0.341690 0.738251
vt 0.479279 0.682220
vt 0.116165 0.178497
vt 0.090042 0.090027
vt 0.104309 0.069763
vt 0.241196 1.000000
vt 0.139236 0.145691
vt 0.250000 0.186249
vt 0.101654 0.397095
vt 0.007172 0.600616
vt 0.121857 0.073364

vn 0.986952 0.161013 -0.000000
vn 0.928049 0.288577 0.235476
vn 0.915523 0.325438 0.236449
vn 0.928049 0.288577 -0.235476
vn 0.915523 0.325438 -0.236449
vn 0.459775 0.553097 -0.694759
vn 0.464292 0.716550 -0.520566
vn -0.459775 0.553097 -0.694759
vn -0.464292 0.716550 -0.520566
vn -0.928049 0.288577 -0.235476
vn -0.915523 0.325438 -0.236449
vn -0.986952 0.161013 0.000000
vn -0.986952 0.049744 -0.153139
vn -1.000000 -0.000000 0.000000
vn -0.986951 -0.130251 -0.094667
vn -0.986951 -0.130251 0.094667
vn -0.915517 -0.402278 0.000000
vn -0.928041 -0.371888 -0.020935
vn -0.459774 -0.855827 -0.236997
vn -0.540224 -0.816714 0.202820
vn 0.540224 -0.816714 0.202820
vn -0.540219 -0.445310 0.714046
vn 0.540219 -0.445310 0.714046
vn 0.459765 -0.039061 0.887181
vn 0.928055 -0.095033 0.360114
vn 0.915524 -0.124328 0.382567
vn 0.986951 -0.130251 0.094667
vn 0.986952 0.049744 0.153139
vn 1.000000 0.000000 -0.000000
vn 0.986952 0.049744 -0.153139
vn 0.928039 0.313171 -0.201660
vn 0.459779 0.831667 -0.311341
vn -0.459779 0.831667 -0.311341
vn -0.928039 0.313171 -0.201660
vn -0.928058 -0.134829 -0.347175
vn -0.915524 -0.124328 -0.382567
vn -0.464290 -0.273679 -0.842339
vn -0.459765 -0.039061 -0.887181
vn 0.459765 -0.039061 -0.887181
vn 0.540219 -0.445310 -0.714046
vn 0.928055 -0.095033 -0.360114
vn 0.540224 -0.816714 -0.202820
vn 0.928041 -0.371888 0.020935
vn 0.459774 -0.855827 0.236997
vn 0.915517 -0.402278 -0.000000
vn 0.464294 -0.885681 -0.000000
vn 0.928041 -0.371888 -0.020935
vn 0.459774 -0.855827 -0.236997
vn 0.928039 0.313171 0.201660
vn 0.459779 0.831667 0.311341
vn 0.540218 0.541500 0.644160
vn -0.540218 0.541500 0.644160
vn 0.540224 -0.059448 0.839419
vn -0.540224 -0.059448 0.839419
vn -0.459769 -0.489859 0.740709
vn -0.928038 -0.134826 0.347228
vn -0.915524 -0.124328 0.382567
vn -0.986952 0.049744 0.153139
vn 0.986951 -0.130251 -0.094667
vn 0.915524 -0.124328 -0.382567
vn 0.928038 -0.134826 -0.347228
vn 0.459769 -0.489859 -0.740709
vn 0.540224 -0.059448 -0.839419
vn -0.540224 -0.059448 -0.839419
vn 0.540218 0.541500 -0.644160
vn -0.540218 0.541500 -0.644160
vn 0.464292 0.716550 0.520566
vn 0.459775 0.553097 0.694759
vn 0.540213 0.779955 0.315974
vn -0.459775 0.553097 0.694759
vn -0.540213 0.779955 0.315974
vn -0.928049 0.288577 0.235476
vn -0.540213 0.779955 -0.315974
vn 0.928038 -0.134826 0.347228
vn 0.464290 -0.273679 0.842339
vn -0.459765 -0.039061 0.887181
vn -0.928055 -0.095033 0.360114
vn -0.464290 -0.273679 0.842339
vn 0.459769 -0.489859 0.740709
vn -0.915523 0.325438 0.236449
vn -0.928039 0.313171 0.201660
vn -0.464292 0.716550 0.520566
vn -0.459779 0.831667 0.311341
vn -0.928055 -0.095033 -0.360114
vn -0.540219 -0.445310 -0.714046
vn -0.540224 -0.816714 -0.202820
vn 0.540213 0.779955 -0.315974
vn -0.928041 -0.371888 0.020935
vn -0.464294 -0.885681 0.000000
vn 0.464290 -0.273679 -0.842339
vn -0.459769 -0.489859 -0.740709
vn -0.459774 -0.855827 0.236997

g polygon1
s 1
usemtl mat1
f 5/5/5 6/6/6 7/7/7
f 5/5/5 8/8/8 6/6/6
f 9/9/9 8/8/8 5/5/5
f 9/9/9 10/10/10 8/8/8
f 11/11/11 10/10/10 9/9/9
f 11/11/11 12/12/12 10/10/10
f 13/13/13 12/12/12 11/11/11
f 13/13/13 14/14/14 12/12/12
f 15/15/15 14/14/14 13/13/13
f 15/15/15 16/16/16 14/14/14
f 17/17/17 16/16/16 15/15/15
f 17/17/17 18/18/18 16/16/16
f 19/19/19 18/18/18 17/17/17
f 19/19/19 20/20/20 18/18/18
f 21/21/21 20/20/20 19/19/19
f 21/21/21 22/22/22 20/20/20
f 23/23/23 22/22/22 21/21/21
f 23/23/23 24/24/24 22/22/22
f 25/25/25 24/24/24 23/23/23
f 25/25/25 26/26/26 24/24/24
f 27/27/27 26/26/26 25/25/25
f 27/27/27 28/28/28 26/26/26
f 29/29/29 28/28/28 27/27/27
f 29/29/29 30/30/30 28/28/28
f 31/31/31 30/30/30 29/29/29
f 31/31/31 32/32/32 30/30/30
f 33/33/33 32/32/32 31/31/31
f 33/33/33 5/5/5 32/32/32
f 34/34/34 5/5/5 33/33/33
f 34/34/34 9/9/9 5/5/5
f 35/35/35 9/9/9 34/34/34
f 35/35/35 11/11/11 9/9/9
f 36/36/36 11/11/11 35/35/35
f 36/36/36 13/13/13 11/11/11
f 37/37/37 13/13/13 36/36/36
f 37/37/37 15/15/15 13/13/13
f 38/38/38 15/15/15 37/37/37
f 38/38/38 17/17/17 15/15/15
f 39/39/39 17/17/17 38/38/38
f 39/39/39 40/40/40 17/17/17
f 41/41/41 40/40/40 39/39/39
f 41/41/41 42/42/42 40/40/40
f 43/43/43 42/42/42 41/41/41
f 43/43/43 44/44/44 42/42/42
f 45/45/45 44/44/44 43/43/43
f 45/45/45 46/46/46 44/44/44
f 47/47/47 46/46/46 45/45/45
f 47/47/47 48/48/48 46/46/46
f 49/49/49 48/48/48 47/47/47
f 49/49/49 50/50/50 48/48/48
f 51/51/51 50/50/50 49/49/49
f 51/51/51 52/52/52 50/50/50
f 25/25/25 52/52/52 51/51/51
f 25/25/25 23/23/23 52/52/52
f 7/7/7 32/32/32 5/5/5
f 7/7/7 53/53/53 32/32/32
f 54/54/54 53/53/53 7/7/7
f 54/54/54 55/55/55 53/53/53
f 56/56/56 55/55/55 54/54/54
f 56/56/56 57/57/57 55/55/55
f 58/58/58 57/57/57 56/56/56
f 58/58/58 59/59/59 57/57/57
f 60/60/60 59/59/59 58/58/58
f 60/60/60 61/61/61 59/59/59
f 62/62/62 61/61/61 60/60/60
f 62/62/62 20/20/20 61/61/61
f 18/18/18 20/20/20 62/62/62
f 63/63/63 33/33/33 31/31/31
f 63/63/63 34/34/34 33/33/33
f 64/64/64 34/34/34 63/63/63
f 64/64/64 65/65/65 34/34/34
f 66/66/66 65/65/65 64/64/64
f 66/66/66 67/67/67 65/65/65
f 68/68/68 67/67/67 66/66/66
f 68/68/68 69/69/69 67/67/67
f 70/70/70 69/69/69 68/68/68
f 70/70/70 37/37/37 69/69/69
f 38/38/38 37/37/37 70/70/70
f 6/6/6 71/71/71 7/7/7
f 6/6/6 72/72/72 71/71/71
f 73/73/73 72/72/72 6/6/6
f 73/73/73 74/74/74 72/72/72
f 75/75/75 74/74/74 73/73/73
f 75/75/75 76/76/76 74/74/74
f 77/77/77 76/76/76 75/75/75
f 77/77/77 14/14/14 76/76/76
f 12/12/12 14/14/14 77/77/77
f 78/78/78 32/32/32 53/53/53
f 78/78/78 30/30/30 32/32/32
f 79/79/79 30/30/30 78/78/78
f 79/79/79 28/28/28 30/30/30
f 80/80/80 28/28/28 79/79/79
f 80/80/80 26/26/26 28/28/28
f 81/81/81 26/26/26 80/80/80
f 81/81/81 24/24/24 26/26/26
f 22/22/22 24/24/24 81/81/81
f 81/81/81 20/20/20 22/22/22
f 81/81/81 61/61/61 20/20/20
f 82/82/82 61/61/61 81/81/81
f 82/82/82 59/59/59 61/61/61
f 83/83/83 59/59/59 82/82/82
f 83/83/83 57/57/57 59/59/59
f 78/78/78 57/57/57 83/83/83
f 78/78/78 55/55/55 57/57/57
f 53/53/53 55/55/55 78/78/78
f 62/62/62 16/16/16 18/18/18
f 62/62/62 84/84/84 16/16/16
f 85/85/85 84/84/84 62/62/62
f 85/85/85 86/86/86 84/84/84
f 87/87/87 86/86/86 85/85/85
f 87/87/87 71/71/71 86/86/86
f 54/54/54 71/71/71 87/87/87
f 54/54/54 7/7/7 71/71/71
f 40/40/40 19/19/19 17/17/17
f 40/40/40 88/88/88 19/19/19
f 42/42/42 88/88/88 40/40/40
f 42/42/42 89/89/89 88/88/88
f 44/44/44 89/89/89 42/42/42
f 44/44/44 90/90/90 89/89/89
f 46/46/46 90/90/90 44/44/44
f 46/46/46 48/48/48 90/90/90
f 8/8/8 73/73/73 6/6/6
f 8/8/8 91/91/91 73/73/73
f 10/10/10 91/91/91 8/8/8
f 10/10/10 77/77/77 91/91/91
f 12/12/12 77/77/77 10/10/10
f 92/92/92 19/19/19 88/88/88
f 92/92/92 21/21/21 19/19/19
f 93/93/93 21/21/21 92/92/92
f 93/93/93 23/23/23 21/21/21
f 52/52/52 23/23/23 93/93/93
f 49/49/49 31/31/31 51/51/51
f 49/49/49 63/63/63 31/31/31
f 47/47/47 63/63/63 49/49/49
f 47/47/47 45/45/45 63/63/63
f 45/45/45 64/64/64 63/63/63
f 45/45/45 94/94/94 64/64/64
f 43/43/43 94/94/94 45/45/45
f 43/43/43 41/41/41 94/94/94
f 94/94/94 66/66/66 64/64/64
f 94/94/94 95/95/95 66/66/66
f 41/41/41 95/95/95 94/94/94
f 41/41/41 39/39/39 95/95/95
f 93/93/93 50/50/50 52/52/52
f 93/93/93 96/96/96 50/50/50
f 92/92/92 96/96/96 93/93/93
f 92/92/92 90/90/90 96/96/96
f 56/56/56 85/85/85 58/58/58
f 56/56/56 87/87/87 85/85/85
f 54/54/54 87/87/87 56/56/56
f 51/51/51 27/27/27 25/25/25
f 51/51/51 29/29/29 27/27/27
f 31/31/31 29/29/29 51/51/51
f 69/69/69 35/35/35 67/67/67
f 69/69/69 36/36/36 35/35/35
f 37/37/37 36/36/36 69/69/69
f 60/60/60 85/85/85 62/62/62
f 60/60/60 58/58/58 85/85/85
f 16/16/16 76/76/76 14/14/14
f 16/16/16 84/84/84 76/76/76
f 84/84/84 74/74/74 76/76/76
f 84/84/84 86/86/86 74/74/74
f 65/65/65 35/35/35 34/34/34
f 65/65/65 67/67/67 35/35/35
f 70/70/70 39/39/39 38/38/38
f 70/70/70 68/68/68 39/39/39
f 68/68/68 95/95/95 39/39/39
f 68/68/68 66/66/66 95/95/95
f 73/73/73 77/77/77 75/75/75
f 73/73/73 91/91/91 77/77/77
f 72/72/72 86/86/86 71/71/71
f 72/72/72 74/74/74 86/86/86
f 83/83/83 79/79/79 78/78/78
f 83/83/83 82/82/82 79/79/79
f 82/82/82 80/80/80 79/79/79
f 82/82/82 81/81/81 80/80/80
f 89/89/89 92/92/92 88/88/88
f 89/89/89 90/90/90 92/92/92
f 96/96/96 48/48/48 50/50/50
f 96/96/96 90/90/90 48/48/48

